<svg version="1.1" id="Layer_1" xmlns="http://www.w3.org/2000/svg" xmlns:xlink="http://www.w3.org/1999/xlink" x="0px" y="0px"
	 width="100%" viewBox="0 0 250 250" enable-background="new 0 0 250 250" xml:space="preserve">
<path fill="#FDFDFD" opacity="1.000000" stroke="none" 
	d="
M1.000000,61.000000 
	C1.000000,41.022057 1.000000,21.044113 1.000000,1.033084 
	C84.219368,1.033084 167.438751,1.033084 251.000000,1.033084 
	C251.000000,29.686655 251.000000,58.374668 250.679031,87.413818 
	C234.990936,76.379089 219.542130,78.486778 203.086075,88.562790 
	C203.086075,81.604538 203.507507,75.671425 202.946411,69.832733 
	C202.532837,65.528992 201.670959,60.858986 199.534927,57.216518 
	C195.276703,49.955181 187.935242,45.868103 180.453506,42.600060 
	C158.891068,33.181530 136.043793,29.245771 112.722641,28.060627 
	C88.488518,26.829090 64.552277,29.314629 41.194038,36.016582 
	C25.510399,40.516544 10.132483,45.818363 1.000000,61.000000 
z"/>
<path fill="#FDFDFC" opacity="1.000000" stroke="none" 
	d="
M251.000000,139.000000 
	C251.000000,174.687561 251.000000,210.375122 250.608582,246.535767 
	C249.176285,247.054962 248.135376,247.101074 246.681656,247.095535 
	C245.166443,247.086823 244.064072,247.129776 242.562744,247.115692 
	C238.737701,246.468796 238.852234,248.721069 239.000000,251.000000 
	C159.769775,251.000000 80.539543,251.000000 1.000000,251.000000 
	C1.000000,218.313095 1.000000,185.625198 1.376837,152.590515 
	C2.845703,157.274506 3.819738,162.334381 5.049933,167.331177 
	C10.754585,190.502304 21.807409,210.313553 42.004871,223.923019 
	C66.500252,240.428497 93.596191,245.168396 122.361671,239.754807 
	C144.518616,235.584915 163.859253,225.643250 178.128677,207.763733 
	C184.312195,200.015823 189.052765,191.116302 194.420609,182.783554 
	C201.886475,188.380829 207.375809,189.237839 215.230515,182.702286 
	C222.803619,176.401047 229.393784,168.760239 235.654419,161.086777 
	C241.304855,154.161209 245.925323,146.395309 251.000000,139.000000 
z"/>
<path fill="#190E09" opacity="1.000000" stroke="none" 
	d="
M251.000000,138.536819 
	C245.925323,146.395309 241.304855,154.161209 235.654419,161.086777 
	C229.393784,168.760239 222.803619,176.401047 215.230515,182.702286 
	C207.375809,189.237839 201.886475,188.380829 194.420609,182.783554 
	C189.052765,191.116302 184.312195,200.015823 178.128677,207.763733 
	C163.859253,225.643250 144.518616,235.584915 122.361671,239.754807 
	C93.596191,245.168396 66.500252,240.428497 42.004871,223.923019 
	C21.807409,210.313553 10.754585,190.502304 5.049933,167.331177 
	C3.819738,162.334381 2.845703,157.274506 1.376837,152.121857 
	C1.000000,121.979103 1.000000,91.958214 1.000000,61.468658 
	C10.132483,45.818363 25.510399,40.516544 41.194038,36.016582 
	C64.552277,29.314629 88.488518,26.829090 112.722641,28.060627 
	C136.043793,29.245771 158.891068,33.181530 180.453506,42.600060 
	C187.935242,45.868103 195.276703,49.955181 199.534927,57.216518 
	C201.670959,60.858986 202.532837,65.528992 202.946411,69.832733 
	C203.507507,75.671425 203.086075,81.604538 203.086075,88.562790 
	C219.542130,78.486778 234.990936,76.379089 250.679031,87.882477 
	C251.000000,89.714355 251.000000,91.428719 250.721085,93.864578 
	C239.781677,84.449112 229.444366,82.411789 216.633316,87.967545 
	C212.384125,90.861549 206.031296,93.178764 205.137390,96.831802 
	C203.367981,104.062668 204.614914,112.031647 204.614914,119.766769 
	C209.148621,115.562981 212.728119,111.267181 217.229858,108.439835 
	C219.888077,106.770340 224.529404,106.223305 227.297287,107.427589 
	C229.393250,108.339508 230.366959,112.725182 231.025467,115.742752 
	C231.491013,117.876060 230.810242,120.358841 230.270233,122.596062 
	C226.929520,136.436554 219.807587,148.354065 210.992142,159.302490 
	C209.606171,161.023834 207.035049,161.790924 205.076538,162.659409 
	C213.184341,149.965317 220.286926,137.131668 224.268799,122.838356 
	C225.218201,119.430405 225.220078,115.758484 225.657761,112.207970 
	C225.058456,112.027687 224.459152,111.847397 223.859848,111.667114 
	C213.394547,116.484612 206.892761,125.712868 203.481766,135.804520 
	C199.939011,146.286026 199.698029,157.883530 197.765366,169.307373 
	C196.616898,173.675201 196.206329,177.768204 200.380112,180.262436 
	C204.325348,182.620102 208.062012,180.899567 211.552094,178.725739 
	C212.391693,178.202789 213.158417,177.543915 213.894928,176.877151 
	C227.959946,164.143723 238.134750,148.555084 247.015686,131.580170 
	C248.442535,129.500107 249.721268,127.750046 251.000000,126.000000 
	C251.000000,130.024551 251.000000,134.049088 251.000000,138.536819 
M8.845302,72.179939 
	C10.874244,74.413422 12.903186,76.646896 15.322496,79.450859 
	C27.295780,87.876305 40.960636,91.897095 55.717899,94.865921 
	C56.149914,94.881172 56.581924,94.896423 57.463131,95.472488 
	C58.644840,95.606506 59.826550,95.740517 61.813683,96.054459 
	C74.481071,97.327049 87.140259,99.500084 99.818184,99.615608 
	C112.169510,99.728157 124.540016,97.735565 137.707321,96.846169 
	C149.955124,93.575150 162.392853,90.862419 174.367554,86.788666 
	C180.033508,84.861130 184.813492,80.329300 190.675446,76.760818 
	C196.988281,72.222092 198.649811,66.074257 193.509323,60.999851 
	C188.319946,55.877155 182.272415,50.907974 175.657669,48.069450 
	C147.638138,36.045681 118.029373,33.485687 87.022118,35.186783 
	C69.941406,35.588753 53.245590,38.686600 37.235870,44.322121 
	C28.616728,47.356113 20.462994,52.158566 12.741796,57.155853 
	C6.574717,61.147285 5.687419,67.008568 8.845302,72.179939 
M195.449905,145.606049 
	C195.525070,145.064178 195.600250,144.522293 195.921143,143.154114 
	C198.713242,122.929886 198.923935,102.692169 196.637009,81.887283 
	C179.862686,94.724319 160.674026,99.583191 141.036041,102.992744 
	C118.483795,106.908257 95.764793,106.940804 72.473511,104.341606 
	C49.454826,101.550240 27.127956,96.606796 7.076321,82.493576 
	C6.520895,90.688423 5.827822,97.962517 5.570173,105.252007 
	C4.689002,130.182449 6.624876,154.796341 15.129488,178.483765 
	C23.516148,201.842667 39.348457,218.624420 62.315662,227.637955 
	C91.423729,239.061493 120.551224,238.003891 148.593063,223.665085 
	C158.630707,218.532486 167.925949,212.002686 174.706436,201.754639 
	C178.568878,195.095078 182.431335,188.435501 186.903305,181.277649 
	C188.851120,174.179733 190.798935,167.081833 192.958466,159.282288 
	C193.220459,157.859756 193.482452,156.437225 193.986740,154.278336 
	C194.246811,152.514236 194.506897,150.750137 194.957306,148.258774 
	C194.994217,147.513260 195.031128,146.767731 195.449905,145.606049 
z"/>
<path fill="#F9F8F7" opacity="1.000000" stroke="none" 
	d="
M216.997894,87.994728 
	C229.444366,82.411789 239.781677,84.449112 250.721085,94.293037 
	C251.000000,104.354225 251.000000,114.708458 251.000000,125.531342 
	C249.721268,127.750046 248.442535,129.500107 246.719925,131.348022 
	C246.667404,127.357269 247.095139,123.271751 247.443527,119.179474 
	C248.637299,105.156708 237.688202,93.085205 223.677872,92.957703 
	C221.257889,92.935677 218.837555,92.954582 216.567474,92.954582 
	C216.343353,92.001122 216.158279,91.663986 216.214539,91.373573 
	C216.434219,90.239265 216.730255,89.119743 216.997894,87.994728 
z"/>
<path fill="#484AE3" opacity="1.000000" stroke="none" 
	d="
M247.094482,247.147186 
	C248.135376,247.101074 249.176285,247.054962 250.608582,247.004425 
	C250.914551,249.019363 251.970367,251.894745 247.514679,250.614029 
	C247.051224,249.201096 247.072845,248.174149 247.094482,247.147186 
z"/>
<path fill="#5BD762" opacity="1.000000" stroke="none" 
	d="
M239.399994,251.000000 
	C238.852234,248.721069 238.737701,246.468796 242.566772,247.496216 
	C242.979843,248.955826 242.989914,249.977921 243.000000,251.000000 
	C241.933334,251.000000 240.866653,251.000000 239.399994,251.000000 
z"/>
<path fill="#E47957" opacity="1.000000" stroke="none" 
	d="
M243.399918,251.000000 
	C242.989914,249.977921 242.979843,248.955826 242.965729,247.553223 
	C244.064072,247.129776 245.166443,247.086823 246.681641,247.095520 
	C247.072845,248.174149 247.051224,249.201096 247.014801,250.614029 
	C245.933273,251.000000 244.866562,251.000000 243.399918,251.000000 
z"/>
<path fill="#E1E1E0" opacity="1.000000" stroke="none" 
	d="
M186.293777,181.775940 
	C182.431335,188.435501 178.568878,195.095078 174.025024,201.838058 
	C169.570526,203.560150 165.846802,205.325729 162.015991,206.815979 
	C143.322830,214.087952 123.784348,213.408829 104.264992,212.790649 
	C103.842949,212.777298 103.435387,212.307144 103.459976,212.020050 
	C115.002533,211.852005 122.505852,208.344345 125.316391,200.748764 
	C113.149109,208.914597 100.881348,208.003540 88.373283,204.287521 
	C88.324852,204.776978 88.276421,205.266449 88.227989,205.755905 
	C91.186943,207.384735 94.145905,209.013550 96.627686,210.704468 
	C82.739265,209.682617 70.877205,204.565140 60.210274,196.609024 
	C57.823540,194.828842 56.053791,192.221466 54.307259,189.821823 
	C65.013184,186.424438 70.058640,176.178650 70.679962,166.792618 
	C70.960472,162.555023 69.149406,158.604965 64.443863,158.010208 
	C57.426430,157.123215 50.234268,156.497650 44.049416,160.943329 
	C42.752079,155.637726 41.486870,150.781097 40.201008,145.530121 
	C41.651863,140.065704 42.607712,134.767715 44.722912,129.982162 
	C47.485600,123.731667 53.192921,123.143646 57.510178,128.167374 
	C60.357368,131.480453 63.762421,133.060089 68.034424,131.702042 
	C72.229805,130.368362 72.912186,126.742950 73.638374,122.981689 
	C81.154999,123.311043 88.238800,123.375404 95.267479,124.030823 
	C102.923256,124.744720 110.527885,126.007019 118.279243,127.483032 
	C118.243523,146.019318 118.018990,164.102585 117.958336,182.186401 
	C117.937248,188.471542 121.327515,193.669373 125.098328,193.821335 
	C128.969788,193.977356 132.376816,190.145111 132.954575,183.240433 
	C133.767639,173.523300 133.773239,163.738632 134.465332,154.025543 
	C142.568222,161.620728 151.475357,165.953217 162.735077,164.412659 
	C162.621475,169.662079 162.301636,174.463257 162.225861,179.268295 
	C162.184509,181.889832 162.162674,184.632721 162.882065,187.102402 
	C163.356506,188.731201 165.052643,190.978333 166.405899,191.130280 
	C168.095917,191.319992 170.236343,189.928818 171.727722,188.678116 
	C172.894913,187.699249 173.495682,185.948349 174.131729,184.448685 
	C177.959763,175.422836 178.444199,165.869736 178.858185,156.182220 
	C181.980942,154.872421 184.702850,153.630783 187.983017,152.134460 
	C187.616272,155.845215 187.312454,158.919250 187.001678,162.439240 
	C186.761063,169.182098 186.527420,175.479019 186.293777,181.775940 
M101.096214,181.383255 
	C101.318146,180.596008 101.540077,179.808777 102.045326,178.247452 
	C102.495422,174.655670 103.484146,171.035507 103.296593,167.477341 
	C102.686028,155.893463 100.428238,145.000778 88.184776,139.619125 
	C88.121346,139.591263 88.407784,138.767441 89.389893,138.231445 
	C94.717316,138.231445 100.044731,138.231445 105.372154,138.231445 
	C105.434151,137.669052 105.496155,137.106659 105.558151,136.544266 
	C99.344734,135.139679 93.184242,133.380280 86.901100,132.443192 
	C81.908768,131.698624 79.494171,134.455444 79.500999,140.047806 
	C80.971146,140.047806 82.445457,140.047806 83.814362,140.716812 
	C81.920044,143.186325 79.204514,145.382126 78.274330,148.172989 
	C74.359856,159.917831 73.632683,171.914413 77.070755,184.691803 
	C78.178146,186.876404 78.992401,189.284744 80.453697,191.199219 
	C83.534897,195.235977 87.979027,196.419968 91.734657,194.102936 
	C96.283844,191.296326 99.856392,187.538361 101.096214,181.383255 
z"/>
<path fill="#B8ACAB" opacity="1.000000" stroke="none" 
	d="
M53.999977,189.994934 
	C56.053791,192.221466 57.823540,194.828842 60.210274,196.609024 
	C70.877205,204.565140 82.739265,209.682617 96.954956,210.712601 
	C99.513298,211.122467 101.267181,211.586273 103.021065,212.050079 
	C103.435387,212.307144 103.842949,212.777298 104.264992,212.790649 
	C123.784348,213.408829 143.322830,214.087952 162.015991,206.815979 
	C165.846802,205.325729 169.570526,203.560150 173.726685,201.993469 
	C167.925949,212.002686 158.630707,218.532486 148.593063,223.665085 
	C120.551224,238.003891 91.423729,239.061493 62.315662,227.637955 
	C39.348457,218.624420 23.516148,201.842667 15.129488,178.483765 
	C6.624876,154.796341 4.689002,130.182449 5.570173,105.252007 
	C5.827822,97.962517 6.520895,90.688423 7.076321,82.493576 
	C27.127956,96.606796 49.454826,101.550240 72.488983,104.965302 
	C63.516171,104.609428 54.484093,103.913925 45.556900,102.537949 
	C40.631531,101.778770 36.156170,101.752686 32.781555,105.692642 
	C29.463326,109.566765 30.586006,114.050949 32.021553,118.717865 
	C22.648729,135.305161 20.401981,152.565598 25.804676,170.431870 
	C30.213850,185.012650 40.355343,191.606247 53.999977,189.994934 
z"/>
<path fill="#FBFAFA" opacity="1.000000" stroke="none" 
	d="
M32.069931,118.385895 
	C30.586006,114.050949 29.463326,109.566765 32.781555,105.692642 
	C36.156170,101.752686 40.631531,101.778770 45.556900,102.537949 
	C54.484093,103.913925 63.516171,104.609428 72.759743,105.257866 
	C95.764793,106.940804 118.483795,106.908257 141.036041,102.992744 
	C160.674026,99.583191 179.862686,94.724319 196.637009,81.887283 
	C198.923935,102.692169 198.713242,122.929886 195.524460,143.611603 
	C195.107864,144.720123 195.087952,145.371170 195.068039,146.022217 
	C195.031128,146.767731 194.994217,147.513260 194.531326,148.696625 
	C193.262619,151.050217 190.091049,152.823013 193.744446,155.014694 
	C193.482452,156.437225 193.220459,157.859756 192.504211,159.637665 
	C190.369537,160.659790 188.689087,161.326538 187.008652,161.993286 
	C187.312454,158.919250 187.616272,155.845215 187.983017,152.134460 
	C184.702850,153.630783 181.980942,154.872421 178.771515,155.768555 
	C177.805481,146.151337 177.442871,136.871582 176.799438,127.611328 
	C176.478516,122.992882 175.822189,118.377266 174.982849,113.822044 
	C174.354416,110.411430 172.621399,107.641014 168.773651,106.915215 
	C164.642960,106.136024 161.709213,107.833603 159.604843,111.260262 
	C158.655380,112.806320 157.790680,114.404434 156.550873,116.022354 
	C152.046448,119.676979 147.878647,123.288177 143.426483,126.662025 
	C140.815964,122.413467 138.447189,118.426201 136.175934,114.384140 
	C134.004639,110.519981 130.894333,108.450249 126.388550,109.307983 
	C121.608047,110.218033 119.621658,113.713966 118.991043,118.132210 
	C118.570595,121.077995 118.423996,124.062859 118.154816,127.030235 
	C110.527885,126.007019 102.923256,124.744720 95.267479,124.030823 
	C88.238800,123.375404 81.154999,123.311043 73.554878,122.616013 
	C71.181358,114.622101 66.149559,110.444130 58.653591,108.937370 
	C47.908390,106.777504 39.108471,110.108200 32.069931,118.385895 
z"/>
<path fill="#C15E2B" opacity="1.000000" stroke="none" 
	d="
M136.902100,96.667252 
	C124.540016,97.735565 112.169510,99.728157 99.818184,99.615608 
	C87.140259,99.500084 74.481071,97.327049 61.218445,95.732887 
	C59.420120,95.244766 58.217030,95.078217 57.013939,94.911667 
	C56.581924,94.896423 56.149914,94.881172 55.310665,94.465126 
	C52.858452,93.069550 50.762131,92.166687 48.779865,91.059608 
	C45.334988,89.135674 41.506039,87.585106 38.649704,84.986069 
	C32.396118,79.295799 34.060215,72.481636 42.206177,69.894073 
	C46.731495,68.456612 51.464798,67.555695 56.167709,66.815399 
	C80.498070,62.985504 104.810631,58.163231 129.604370,61.144032 
	C137.583023,62.103252 145.601944,64.110428 153.129166,66.910446 
	C157.477478,68.527939 161.841202,71.871048 162.039948,77.819229 
	C162.239990,83.806267 158.507904,86.819931 153.761932,89.056229 
	C151.365692,90.185341 148.808380,90.969543 146.394852,92.065880 
	C143.194290,93.519722 140.063110,95.126305 136.902100,96.667252 
M121.373314,79.982018 
	C111.467072,80.647774 101.558266,81.277977 91.655304,81.989334 
	C81.850830,82.693611 72.078354,79.194633 62.012356,81.852081 
	C64.976631,84.243187 68.077065,86.022964 71.412827,86.829857 
	C88.882004,91.055481 106.598335,93.959198 124.505951,90.777306 
	C131.978958,89.449471 139.111542,86.063271 146.276688,83.296509 
	C147.372879,82.873238 147.806091,80.733040 148.545944,79.386932 
	C147.204498,78.912025 145.830307,77.953827 144.527023,78.042122 
	C137.106171,78.544846 129.702225,79.297226 121.373314,79.982018 
z"/>
<path fill="#9A4412" opacity="1.000000" stroke="none" 
	d="
M137.304718,96.756714 
	C140.063110,95.126305 143.194290,93.519722 146.394852,92.065880 
	C148.808380,90.969543 151.365692,90.185341 153.761932,89.056229 
	C158.507904,86.819931 162.239990,83.806267 162.039948,77.819229 
	C161.841202,71.871048 157.477478,68.527939 153.129166,66.910446 
	C145.601944,64.110428 137.583023,62.103252 129.604370,61.144032 
	C104.810631,58.163231 80.498070,62.985504 56.167709,66.815399 
	C51.464798,67.555695 46.731495,68.456612 42.206177,69.894073 
	C34.060215,72.481636 32.396118,79.295799 38.649704,84.986069 
	C41.506039,87.585106 45.334988,89.135674 48.779865,91.059608 
	C50.762131,92.166687 52.858452,93.069550 54.994225,94.392838 
	C40.960636,91.897095 27.295780,87.876305 15.295763,78.872780 
	C16.527634,76.516006 17.786238,74.737320 19.305059,72.897339 
	C19.717348,72.549164 19.869417,72.262276 20.011139,71.987335 
	C20.000790,71.999298 19.975368,72.018120 20.352329,72.086380 
	C21.511719,71.894852 22.351875,71.742973 23.068262,71.359726 
	C52.438145,55.647781 83.907127,49.923615 116.888680,52.167458 
	C126.431641,52.816700 135.977875,54.359039 145.354599,56.302467 
	C161.790741,59.709042 176.908478,66.292572 190.014435,77.010811 
	C189.996780,77.011681 189.994888,76.977394 189.994888,76.977394 
	C184.813492,80.329300 180.033508,84.861130 174.367554,86.788666 
	C162.392853,90.862419 149.955124,93.575150 137.304718,96.756714 
z"/>
<path fill="#B8ADAA" opacity="1.000000" stroke="none" 
	d="
M216.633316,87.967545 
	C216.730255,89.119743 216.434219,90.239265 216.214539,91.373573 
	C216.158279,91.663986 216.343353,92.001122 216.567474,92.954582 
	C218.837555,92.954582 221.257889,92.935677 223.677872,92.957703 
	C237.688202,93.085205 248.637299,105.156708 247.443527,119.179474 
	C247.095139,123.271751 246.667404,127.357269 246.571808,131.678024 
	C238.134750,148.555084 227.959946,164.143723 213.894928,176.877151 
	C213.158417,177.543915 212.391693,178.202789 211.552094,178.725739 
	C208.062012,180.899567 204.325348,182.620102 200.380112,180.262436 
	C196.206329,177.768204 196.616898,173.675201 198.115875,169.261032 
	C200.813385,166.933289 202.912643,164.966263 205.011902,162.999222 
	C207.035049,161.790924 209.606171,161.023834 210.992142,159.302490 
	C219.807587,148.354065 226.929520,136.436554 230.270233,122.596062 
	C230.810242,120.358841 231.491013,117.876060 231.025467,115.742752 
	C230.366959,112.725182 229.393250,108.339508 227.297287,107.427589 
	C224.529404,106.223305 219.888077,106.770340 217.229858,108.439835 
	C212.728119,111.267181 209.148621,115.562981 204.614914,119.766769 
	C204.614914,112.031647 203.367981,104.062668 205.137390,96.831802 
	C206.031296,93.178764 212.384125,90.861549 216.633316,87.967545 
z"/>
<path fill="#626160" opacity="1.000000" stroke="none" 
	d="
M19.044842,72.958626 
	C17.786238,74.737320 16.527634,76.516006 15.100579,78.587540 
	C12.903186,76.646896 10.874244,74.413422 8.977900,71.474945 
	C11.541548,68.553185 13.933643,66.291832 16.410681,64.127701 
	C25.146076,56.495792 35.010769,50.700371 46.304756,48.086868 
	C58.338459,45.302189 70.532425,43.115147 82.745964,41.255173 
	C86.899940,40.622578 88.305847,39.105305 87.884575,35.265377 
	C118.029373,33.485687 147.638138,36.045681 175.657669,48.069450 
	C182.272415,50.907974 188.319946,55.877155 193.509323,60.999851 
	C198.649811,66.074257 196.988281,72.222092 190.335175,76.869110 
	C189.994888,76.977394 189.996780,77.011681 190.082687,76.647163 
	C185.970596,67.327744 178.349548,62.115150 169.853500,57.985859 
	C152.180862,49.396526 133.134644,46.231174 113.818756,45.277794 
	C88.521927,44.029213 63.641937,46.830990 40.198158,57.272785 
	C32.497822,60.702496 25.035034,64.802856 19.975368,72.018120 
	C19.975368,72.018120 20.000790,71.999298 19.755405,72.038544 
	C19.354959,72.371391 19.199900,72.665009 19.044842,72.958626 
z"/>
<path fill="#F8F7F6" opacity="1.000000" stroke="none" 
	d="
M205.076538,162.659409 
	C202.912643,164.966263 200.813385,166.933289 198.363617,168.946655 
	C199.698029,157.883530 199.939011,146.286026 203.481766,135.804520 
	C206.892761,125.712868 213.394547,116.484612 223.859848,111.667114 
	C224.459152,111.847397 225.058456,112.027687 225.657761,112.207970 
	C225.220078,115.758484 225.218201,119.430405 224.268799,122.838356 
	C220.286926,137.131668 213.184341,149.965317 205.076538,162.659409 
z"/>
<path fill="#8D8C8B" opacity="1.000000" stroke="none" 
	d="
M87.453346,35.226082 
	C88.305847,39.105305 86.899940,40.622578 82.745964,41.255173 
	C70.532425,43.115147 58.338459,45.302189 46.304756,48.086868 
	C35.010769,50.700371 25.146076,56.495792 16.410681,64.127701 
	C13.933643,66.291832 11.541548,68.553185 9.028376,71.140991 
	C5.687419,67.008568 6.574717,61.147285 12.741796,57.155853 
	C20.462994,52.158566 28.616728,47.356113 37.235870,44.322121 
	C53.245590,38.686600 69.941406,35.588753 87.453346,35.226082 
z"/>
<path fill="#F0EFED" opacity="1.000000" stroke="none" 
	d="
M187.001678,162.439240 
	C188.689087,161.326538 190.369537,160.659790 192.398361,159.988480 
	C190.798935,167.081833 188.851120,174.179733 186.598541,181.526794 
	C186.527420,175.479019 186.761063,169.182098 187.001678,162.439240 
z"/>
<path fill="#F0EFED" opacity="1.000000" stroke="none" 
	d="
M193.865601,154.646515 
	C190.091049,152.823013 193.262619,151.050217 194.436157,149.060272 
	C194.506897,150.750137 194.246811,152.514236 193.865601,154.646515 
z"/>
<path fill="#9A4412" opacity="1.000000" stroke="none" 
	d="
M57.238533,95.192078 
	C58.217030,95.078217 59.420120,95.244766 60.815735,95.642921 
	C59.826550,95.740517 58.644840,95.606506 57.238533,95.192078 
z"/>
<path fill="#F0EFED" opacity="1.000000" stroke="none" 
	d="
M195.258972,145.814133 
	C195.087952,145.371170 195.107864,144.720123 195.401596,144.024750 
	C195.600250,144.522293 195.525070,145.064178 195.258972,145.814133 
z"/>
<path fill="#1B1108" opacity="1.000000" stroke="none" 
	d="
M118.279251,127.483032 
	C118.423996,124.062859 118.570595,121.077995 118.991043,118.132210 
	C119.621658,113.713966 121.608047,110.218033 126.388550,109.307983 
	C130.894333,108.450249 134.004639,110.519981 136.175934,114.384140 
	C138.447189,118.426201 140.815964,122.413467 143.506042,126.977921 
	C145.557648,130.751678 147.245346,133.972198 149.457138,138.192810 
	C152.218124,129.938553 154.552811,122.958740 156.887512,115.978928 
	C157.790680,114.404434 158.655380,112.806320 159.604843,111.260262 
	C161.709213,107.833603 164.642960,106.136024 168.773651,106.915215 
	C172.621399,107.641014 174.354416,110.411430 174.982849,113.822044 
	C175.822189,118.377266 176.478516,122.992882 176.799438,127.611328 
	C177.442871,136.871582 177.805481,146.151337 178.370682,155.836716 
	C178.444199,165.869736 177.959763,175.422836 174.131729,184.448685 
	C173.495682,185.948349 172.894913,187.699249 171.727722,188.678116 
	C170.236343,189.928818 168.095917,191.319992 166.405899,191.130280 
	C165.052643,190.978333 163.356506,188.731201 162.882065,187.102402 
	C162.162674,184.632721 162.184509,181.889832 162.225861,179.268295 
	C162.301636,174.463257 162.621475,169.662079 162.825531,163.971344 
	C162.527878,157.142136 162.244263,151.200897 161.960632,145.259644 
	C158.126724,150.410400 155.152893,156.411072 148.476852,155.164688 
	C143.298401,154.197876 138.624863,150.526443 133.761566,148.074707 
	C133.862015,149.711655 133.993073,151.847244 134.124115,153.982834 
	C133.773239,163.738632 133.767639,173.523300 132.954575,183.240433 
	C132.376816,190.145111 128.969788,193.977356 125.098328,193.821335 
	C121.327515,193.669373 117.937248,188.471542 117.958336,182.186401 
	C118.018990,164.102585 118.243523,146.019318 118.279251,127.483032 
M142.955032,147.039169 
	C142.955032,147.039169 142.879456,147.093094 143.166580,147.608643 
	C143.683380,147.874146 144.200195,148.139633 144.960464,148.371643 
	C144.960464,148.371643 144.714844,148.365570 145.177322,148.911377 
	C147.734467,150.452316 150.149384,150.782501 152.646240,147.901657 
	C152.913712,147.686172 153.040604,147.406830 153.616974,146.717941 
	C154.686035,145.137253 155.755096,143.556564 156.986954,141.566437 
	C156.986954,141.566437 157.048523,141.130173 157.532364,140.906754 
	C157.681595,140.601013 157.830811,140.295288 158.001663,139.998047 
	C158.001663,139.998047 157.985199,139.979309 158.544586,139.626801 
	C159.315689,138.412674 160.086792,137.198547 160.989777,135.283554 
	C162.060745,133.809448 163.131699,132.335327 164.377701,130.620270 
	C165.092392,132.201080 165.602798,133.330063 166.057358,135.297165 
	C165.070312,137.532867 164.083267,139.768570 162.816147,142.638641 
	C164.596512,142.638641 165.790039,142.638641 167.152115,143.186356 
	C167.002167,143.530167 166.852234,143.873978 166.241455,145.159332 
	C166.392181,150.254227 166.586166,155.348282 166.683762,160.444183 
	C166.839798,168.592499 166.890503,176.743225 167.126968,184.888824 
	C167.146515,185.562241 168.241379,186.204422 168.836609,186.861130 
	C169.544754,186.144241 170.747116,185.498718 170.862961,184.696320 
	C171.144501,182.746109 170.921234,180.723038 170.900497,177.929703 
	C171.609726,170.289581 172.318954,162.649460 173.175522,154.139984 
	C172.817612,151.399689 172.350311,148.668457 172.121902,145.917419 
	C171.376450,136.938522 170.718124,127.952415 170.078644,118.157188 
	C169.099762,116.365646 168.120880,114.574104 167.141998,112.782555 
	C165.767105,114.157684 164.377182,115.518456 163.034348,116.924210 
	C162.844131,117.123329 162.883163,117.541435 162.217377,118.276711 
	C160.762955,122.408394 159.308533,126.540077 157.334244,131.164734 
	C157.194016,132.098999 157.053772,133.033264 156.994003,133.976440 
	C156.994003,133.976440 156.935257,133.920715 156.444916,134.372131 
	C156.220795,135.222183 155.996689,136.072250 155.319656,137.252243 
	C155.195572,137.792816 155.071487,138.333405 154.400116,139.267517 
	C153.216766,141.132690 152.033401,142.997849 150.933838,144.905014 
	C150.933838,144.905014 150.929718,144.811356 150.162292,144.889893 
	C149.146179,144.799713 148.130051,144.709518 146.810394,144.030853 
	C142.483139,136.570694 138.407806,128.945496 133.688782,121.741982 
	C132.087250,119.297256 128.861191,117.916771 126.377464,116.049965 
	C125.522217,118.657997 124.666969,121.266029 123.406624,124.517403 
	C123.427658,126.031929 123.448685,127.546448 123.389977,129.977844 
	C123.431808,134.300781 123.473640,138.623703 123.272278,143.719376 
	C123.264580,144.799026 123.256889,145.878662 123.035057,147.878860 
	C122.982872,157.578339 122.872940,167.278107 122.925293,176.977020 
	C122.936295,179.014099 123.544006,181.047958 123.782021,183.074295 
	C123.782021,183.074295 123.754982,183.165527 123.722282,183.875458 
	C124.129486,185.110580 124.536690,186.345703 124.943893,187.580811 
	C125.275238,187.556091 125.606575,187.531387 125.937920,187.506668 
	C126.358025,186.039703 126.778130,184.572739 127.158356,183.041656 
	C127.158356,183.041656 127.110771,183.100296 127.689178,182.558929 
	C127.871613,180.678040 128.054047,178.797134 128.394592,176.446472 
	C128.478775,176.088272 128.386154,175.783875 128.691605,174.824417 
	C128.711945,170.912277 128.732285,167.000137 128.873093,162.165466 
	C128.760361,158.776260 128.647629,155.387070 128.714600,151.454758 
	C128.491531,150.968521 128.268478,150.482285 128.082855,149.067764 
	C128.039093,144.714218 127.995323,140.360687 128.132202,135.330734 
	C128.487747,134.278900 128.843277,133.227066 129.095520,132.480865 
	C133.350250,137.084290 137.526978,141.603317 141.945770,146.641159 
	C142.278473,146.804550 142.611176,146.967941 142.955032,147.039169 
z"/>
<path fill="#1D1108" opacity="1.000000" stroke="none" 
	d="
M32.021553,118.717865 
	C39.108471,110.108200 47.908390,106.777504 58.653591,108.937370 
	C66.149559,110.444130 71.181358,114.622101 73.097771,122.611412 
	C72.912186,126.742950 72.229805,130.368362 68.034424,131.702042 
	C63.762421,133.060089 60.357368,131.480453 57.510178,128.167374 
	C53.192921,123.143646 47.485600,123.731667 44.722912,129.982162 
	C42.607712,134.767715 41.651863,140.065704 39.980087,145.878601 
	C37.498135,154.900681 38.198116,162.799591 42.688404,170.394409 
	C43.173824,167.257736 43.627682,164.325027 44.081539,161.392303 
	C50.234268,156.497650 57.426430,157.123215 64.443863,158.010208 
	C69.149406,158.604965 70.960472,162.555023 70.679962,166.792618 
	C70.058640,176.178650 65.013184,186.424438 54.307259,189.821823 
	C40.355343,191.606247 30.213850,185.012650 25.804676,170.431870 
	C20.401981,152.565598 22.648729,135.305161 32.021553,118.717865 
M59.691383,180.035797 
	C59.945618,179.742188 60.199852,179.448578 60.962891,178.709122 
	C62.237343,175.847168 63.925140,173.091919 64.697266,170.100327 
	C66.151657,164.465256 64.636551,162.814972 58.786358,163.075775 
	C56.137917,163.193863 53.446949,163.416763 50.889957,164.052994 
	C49.720417,164.344009 48.828053,165.748978 47.809982,166.648743 
	C48.018280,167.021622 48.226578,167.394516 48.434872,167.767410 
	C52.138092,167.581985 55.841312,167.396561 59.505672,167.213074 
	C60.162613,172.938095 58.286362,176.499008 53.832088,178.662766 
	C48.501663,181.252106 43.818489,180.446884 39.906353,176.224609 
	C35.378468,171.337769 33.138638,165.499542 33.026440,158.073975 
	C33.849144,147.604889 35.544403,137.414917 39.816486,127.624207 
	C43.447479,119.302750 55.853867,117.073219 61.741375,124.213539 
	C62.764721,125.454651 64.891258,125.786133 66.508247,126.537758 
	C66.538544,124.506821 66.870346,122.416107 66.484146,120.467728 
	C66.258537,119.329559 65.052452,118.182106 64.002983,117.442558 
	C54.119938,110.478142 41.666824,114.301743 37.021023,121.332619 
	C29.909880,132.094498 27.554445,144.140289 28.962885,157.741409 
	C29.253626,159.319046 29.544367,160.896698 29.777746,162.999588 
	C29.874485,163.337036 29.971226,163.674484 29.972006,164.711426 
	C30.275478,165.563507 30.578951,166.415573 30.883724,167.659622 
	C30.883724,167.659622 31.058088,168.010681 31.017338,168.636292 
	C31.308268,169.164337 31.599197,169.692383 31.904697,170.633087 
	C31.904697,170.633087 32.076080,171.008774 32.037518,171.605713 
	C32.340435,172.094437 32.643353,172.583145 32.997196,173.014145 
	C32.997196,173.014145 32.922661,173.033356 33.002533,173.565948 
	C33.261421,173.790833 33.520309,174.015717 33.786434,174.130051 
	C33.786434,174.130051 33.692127,174.188156 33.769455,174.807541 
	C34.136753,175.290054 34.504051,175.772552 35.227451,176.807449 
	C37.764755,178.903397 40.302059,180.999344 43.288998,183.607925 
	C44.167801,183.799194 45.046600,183.990448 45.987518,184.086044 
	C45.987518,184.086044 45.882874,184.131454 46.420242,184.655090 
	C48.321682,184.481491 50.223122,184.307892 52.023083,184.105331 
	C52.023083,184.105331 52.078857,184.194916 52.752659,184.199646 
	C53.523415,183.816193 54.294167,183.432755 55.009418,183.003571 
	C55.009418,183.003571 55.025486,183.073685 55.629532,183.025620 
	C56.121475,182.713470 56.613415,182.401337 57.025875,182.023727 
	C57.025875,182.023727 57.059669,182.120987 57.593544,182.004211 
	C57.791264,181.710846 57.988983,181.417480 58.088200,181.095047 
	C58.088200,181.095047 58.125877,181.190582 58.638512,181.022659 
	C58.826599,180.729019 59.014690,180.435394 59.112000,180.103134 
	C59.112000,180.103134 59.125183,180.200912 59.691383,180.035797 
z"/>
<path fill="#272727" opacity="1.000000" stroke="none" 
	d="
M88.530838,138.315323 
	C88.407784,138.767441 88.121346,139.591263 88.184776,139.619125 
	C100.428238,145.000778 102.686028,155.893463 103.296593,167.477341 
	C103.484146,171.035507 102.495422,174.655670 101.548126,178.543167 
	C98.556366,177.697372 101.981819,172.611725 96.985008,172.670639 
	C94.868393,171.884232 92.936928,171.441132 91.082184,170.647400 
	C94.798645,166.077881 95.747986,160.945709 94.727402,155.823273 
	C94.230812,153.330811 92.072556,150.321289 89.841850,149.227219 
	C86.729805,147.700867 83.313416,149.106567 81.205299,152.257828 
	C78.002625,157.045227 77.768898,162.222794 79.748665,167.462753 
	C81.314041,171.605896 84.197472,173.983826 89.356110,173.220062 
	C89.926155,175.831085 90.112076,178.189697 90.084778,180.898315 
	C85.624832,182.155319 81.378105,183.062302 77.131378,183.969299 
	C73.632683,171.914413 74.359856,159.917831 78.274330,148.172989 
	C79.204514,145.382126 81.920044,143.186325 84.175079,140.161102 
	C85.867477,139.175369 87.199150,138.745346 88.530838,138.315323 
z"/>
<path fill="#F9F9F7" opacity="1.000000" stroke="none" 
	d="
M134.465332,154.025543 
	C133.993073,151.847244 133.862015,149.711655 133.761566,148.074707 
	C138.624863,150.526443 143.298401,154.197876 148.476852,155.164688 
	C155.152893,156.411072 158.126724,150.410400 161.960632,145.259644 
	C162.244263,151.200897 162.527878,157.142136 162.721039,163.524719 
	C151.475357,165.953217 142.568222,161.620728 134.465332,154.025543 
z"/>
<path fill="#474747" opacity="1.000000" stroke="none" 
	d="
M77.101067,184.330551 
	C81.378105,183.062302 85.624832,182.155319 90.386765,180.965759 
	C91.509140,180.765121 92.116318,180.847061 93.137939,180.974213 
	C95.963417,181.323456 98.374443,181.627502 100.785469,181.931564 
	C99.856392,187.538361 96.283844,191.296326 91.734657,194.102936 
	C87.979027,196.419968 83.534897,195.235977 80.453697,191.199219 
	C78.992401,189.284744 78.178146,186.876404 77.101067,184.330551 
z"/>
<path fill="#1E1713" opacity="1.000000" stroke="none" 
	d="
M103.459976,212.020050 
	C101.267181,211.586273 99.513298,211.122467 97.432137,210.650513 
	C94.145905,209.013550 91.186943,207.384735 88.227989,205.755905 
	C88.276421,205.266449 88.324852,204.776978 88.373283,204.287521 
	C100.881348,208.003540 113.149109,208.914597 125.316391,200.748764 
	C122.505852,208.344345 115.002533,211.852005 103.459976,212.020050 
z"/>
<path fill="#1A130E" opacity="1.000000" stroke="none" 
	d="
M88.960358,138.273376 
	C87.199150,138.745346 85.867477,139.175369 84.227783,139.826599 
	C82.445457,140.047806 80.971146,140.047806 79.500999,140.047806 
	C79.494171,134.455444 81.908768,131.698624 86.901100,132.443192 
	C93.184242,133.380280 99.344734,135.139679 105.558151,136.544266 
	C105.496155,137.106659 105.434151,137.669052 105.372154,138.231445 
	C100.044731,138.231445 94.717316,138.231445 88.960358,138.273376 
z"/>
<path fill="#AA9E9C" opacity="1.000000" stroke="none" 
	d="
M44.049416,160.943329 
	C43.627682,164.325027 43.173824,167.257736 42.688404,170.394409 
	C38.198116,162.799591 37.498135,154.900681 40.000732,146.272949 
	C41.486870,150.781097 42.752079,155.637726 44.049416,160.943329 
z"/>
<path fill="#151515" opacity="1.000000" stroke="none" 
	d="
M100.940842,181.657410 
	C98.374443,181.627502 95.963417,181.323456 93.339546,180.688095 
	C94.474518,177.909180 95.822334,175.461563 97.170151,173.013947 
	C101.981819,172.611725 98.556366,177.697372 101.406471,178.930206 
	C101.540077,179.808777 101.318146,180.596008 100.940842,181.657410 
z"/>
<path fill="#DCDBDA" opacity="1.000000" stroke="none" 
	d="
M156.550873,116.022354 
	C154.552811,122.958740 152.218124,129.938553 149.457138,138.192810 
	C147.245346,133.972198 145.557648,130.751678 143.790405,127.215271 
	C147.878647,123.288177 152.046448,119.676979 156.550873,116.022354 
z"/>
<path fill="#E39472" opacity="1.000000" stroke="none" 
	d="
M121.832932,79.973373 
	C129.702225,79.297226 137.106171,78.544846 144.527023,78.042122 
	C145.830307,77.953827 147.204498,78.912025 148.545944,79.386932 
	C147.806091,80.733040 147.372879,82.873238 146.276688,83.296509 
	C139.111542,86.063271 131.978958,89.449471 124.505951,90.777306 
	C106.598335,93.959198 88.882004,91.055481 71.412827,86.829857 
	C68.077065,86.022964 64.976631,84.243187 62.012356,81.852081 
	C72.078354,79.194633 81.850830,82.693611 91.655304,81.989334 
	C101.558266,81.277977 111.467072,80.647774 121.832932,79.973373 
z"/>
<path fill="#190E09" opacity="1.000000" stroke="none" 
	d="
M20.352329,72.086380 
	C25.035034,64.802856 32.497822,60.702496 40.198158,57.272785 
	C63.641937,46.830990 88.521927,44.029213 113.818756,45.277794 
	C133.134644,46.231174 152.180862,49.396526 169.853500,57.985859 
	C178.349548,62.115150 185.970596,67.327744 190.100342,76.646294 
	C176.908478,66.292572 161.790741,59.709042 145.354599,56.302467 
	C135.977875,54.359039 126.431641,52.816700 116.888680,52.167458 
	C83.907127,49.923615 52.438145,55.647781 23.068262,71.359726 
	C22.351875,71.742973 21.511719,71.894852 20.352329,72.086380 
z"/>
<path fill="#190E09" opacity="1.000000" stroke="none" 
	d="
M19.305058,72.897339 
	C19.199900,72.665009 19.354959,72.371391 19.765755,72.026581 
	C19.869417,72.262276 19.717348,72.549164 19.305058,72.897339 
z"/>
<path fill="#EFC242" opacity="1.000000" stroke="none" 
	d="
M123.811722,123.874062 
	C124.666969,121.266029 125.522217,118.657997 126.377472,116.049965 
	C128.861191,117.916771 132.087250,119.297256 133.688782,121.741982 
	C138.407806,128.945496 142.483139,136.570694 147.092316,144.651901 
	C148.559402,145.119095 149.744553,144.965225 150.929718,144.811371 
	C150.929718,144.811356 150.933838,144.905014 151.230438,144.963165 
	C152.027008,145.702087 152.526962,146.382843 153.026917,147.063614 
	C153.040604,147.406830 152.913712,147.686172 151.961639,147.971069 
	C149.089645,148.148849 146.902252,148.257217 144.714844,148.365570 
	C144.714844,148.365570 144.960464,148.371643 144.790955,148.060242 
	C144.040787,147.530258 143.460114,147.311676 142.879456,147.093094 
	C142.879456,147.093094 142.955032,147.039169 142.828186,146.826050 
	C142.368774,146.449402 142.036240,146.285873 141.703705,146.122345 
	C137.526978,141.603317 133.350250,137.084290 129.095520,132.480865 
	C128.843277,133.227066 128.487747,134.278900 127.770775,135.940948 
	C125.932793,138.574249 129.172089,143.468582 123.515472,142.946640 
	C123.473640,138.623703 123.431808,134.300781 123.635490,129.204361 
	C123.857910,126.911942 123.834824,125.392998 123.811722,123.874062 
z"/>
<path fill="#ECBF3F" opacity="1.000000" stroke="none" 
	d="
M154.947403,138.873978 
	C155.071487,138.333405 155.195572,137.792816 155.856171,136.925323 
	C156.573547,135.705841 156.754410,134.813278 156.935257,133.920715 
	C156.935257,133.920715 156.994003,133.976440 157.244843,133.751083 
	C157.615143,132.574402 157.734619,131.623077 157.854095,130.671753 
	C159.308533,126.540077 160.762955,122.408394 162.806061,118.294952 
	C163.955338,119.764732 164.515915,121.216270 165.076492,122.667809 
	C165.627075,123.069458 166.177658,123.471107 166.728241,123.872749 
	C167.827591,122.238197 168.926926,120.603638 170.026276,118.969078 
	C170.718124,127.952415 171.376450,136.938522 172.121902,145.917419 
	C172.350311,148.668457 172.817612,151.399689 172.695190,154.580139 
	C171.131607,155.052429 170.048386,155.084549 168.874603,154.885727 
	C168.613281,154.363922 168.380768,154.136154 168.035889,153.531586 
	C167.557648,150.133743 167.129974,147.175781 166.702301,144.217804 
	C166.852234,143.873978 167.002167,143.530167 167.146301,142.579865 
	C166.798050,139.468597 166.455627,136.963806 166.113205,134.459030 
	C165.602798,133.330063 165.092392,132.201080 164.377701,130.620270 
	C163.131699,132.335327 162.060745,133.809448 160.599106,135.698105 
	C159.467361,137.401550 158.726288,138.690430 157.985199,139.979309 
	C157.985199,139.979309 158.001663,139.998047 157.767426,140.121155 
	C157.371643,140.539551 157.210083,140.834869 157.048523,141.130173 
	C157.048523,141.130173 156.986954,141.566437 156.566193,141.709778 
	C155.746078,140.860077 155.346741,139.867035 154.947403,138.873978 
z"/>
<path fill="#A77A22" opacity="1.000000" stroke="none" 
	d="
M128.534912,151.997864 
	C128.647629,155.387070 128.760361,158.776260 128.572601,162.946320 
	C128.220306,167.662537 128.168518,171.597916 128.116730,175.533279 
	C128.386154,175.783875 128.478775,176.088272 127.986206,176.928711 
	C127.422142,179.307388 127.266457,181.203842 127.110771,183.100296 
	C127.110771,183.100296 127.158356,183.041656 126.884789,183.124786 
	C125.659142,183.193771 124.707062,183.179657 123.754982,183.165527 
	C123.754982,183.165527 123.782021,183.074295 123.871017,182.605804 
	C123.965065,171.112869 123.970116,160.088409 124.318390,149.053574 
	C125.436440,149.390106 126.211266,149.737030 127.022614,150.356567 
	C127.551064,151.085419 128.042984,151.541641 128.534912,151.997864 
z"/>
<path fill="#BE8F2D" opacity="1.000000" stroke="none" 
	d="
M168.965149,155.116669 
	C170.048386,155.084549 171.131607,155.052429 172.621521,155.014832 
	C172.318954,162.649460 171.609726,170.289581 170.715668,178.432816 
	C170.530853,178.935928 170.154755,179.131210 169.833710,178.839951 
	C169.330154,170.738022 169.147644,162.927338 168.965149,155.116669 
z"/>
<path fill="#200F04" opacity="1.000000" stroke="none" 
	d="
M170.154755,179.131210 
	C170.154755,179.131210 170.530853,178.935928 170.716095,178.832611 
	C170.921234,180.723038 171.144501,182.746109 170.862961,184.696320 
	C170.747116,185.498718 169.544754,186.144241 168.836609,186.861130 
	C168.241379,186.204422 167.146515,185.562241 167.126968,184.888824 
	C166.890503,176.743225 166.839798,168.592499 166.683762,160.444183 
	C166.586166,155.348282 166.392181,150.254227 166.471878,144.688568 
	C167.129974,147.175781 167.557648,150.133743 167.970825,153.998077 
	C167.956314,164.355911 167.956314,173.807388 167.956314,183.258865 
	C168.338867,183.282227 168.721420,183.305588 169.103973,183.328949 
	C169.454224,181.929703 169.804489,180.530457 170.154755,179.131210 
z"/>
<path fill="#EBC762" opacity="1.000000" stroke="none" 
	d="
M170.052460,118.563133 
	C168.926926,120.603638 167.827591,122.238197 166.728241,123.872749 
	C166.177658,123.471107 165.627075,123.069458 165.076492,122.667809 
	C164.515915,121.216270 163.955338,119.764732 163.105423,118.085686 
	C162.883163,117.541435 162.844131,117.123329 163.034348,116.924210 
	C164.377182,115.518456 165.767105,114.157684 167.141998,112.782555 
	C168.120880,114.574104 169.099762,116.365646 170.052460,118.563133 
M166.507889,119.408653 
	C166.507889,119.408653 166.570648,119.515289 166.507889,119.408653 
z"/>
<path fill="#9E792E" opacity="1.000000" stroke="none" 
	d="
M123.975159,149.063950 
	C123.970116,160.088409 123.965065,171.112869 123.918388,182.610321 
	C123.544006,181.047958 122.936295,179.014099 122.925293,176.977020 
	C122.872940,167.278107 122.982872,157.578339 123.341888,147.627136 
	C123.757530,147.938248 123.866341,148.501099 123.975159,149.063950 
z"/>
<path fill="#DBAE3F" opacity="1.000000" stroke="none" 
	d="
M124.318390,149.053574 
	C123.866341,148.501099 123.757530,147.938248 123.448959,147.166855 
	C123.256889,145.878662 123.264580,144.799026 123.393875,143.333008 
	C129.172089,143.468582 125.932793,138.574249 127.680450,136.279144 
	C127.995323,140.360687 128.039093,144.714218 127.798416,149.543289 
	C127.338013,150.040527 127.162048,150.062225 126.986084,150.083939 
	C126.211266,149.737030 125.436440,149.390106 124.318390,149.053574 
z"/>
<path fill="#DDB64C" opacity="1.000000" stroke="none" 
	d="
M154.673767,139.070740 
	C155.346741,139.867035 155.746078,140.860077 156.484772,141.914490 
	C155.755096,143.556564 154.686035,145.137253 153.321945,146.890778 
	C152.526962,146.382843 152.027008,145.702087 151.188538,144.942169 
	C152.033401,142.997849 153.216766,141.132690 154.673767,139.070740 
z"/>
<path fill="#200F04" opacity="1.000000" stroke="none" 
	d="
M166.085281,134.878098 
	C166.455627,136.963806 166.798050,139.468597 167.062042,142.306000 
	C165.790039,142.638641 164.596512,142.638641 162.816147,142.638641 
	C164.083267,139.768570 165.070312,137.532867 166.085281,134.878098 
z"/>
<path fill="#9E792E" opacity="1.000000" stroke="none" 
	d="
M128.404175,175.178848 
	C128.168518,171.597916 128.220306,167.662537 128.512360,163.407593 
	C128.732285,167.000137 128.711945,170.912277 128.404175,175.178848 
z"/>
<path fill="#DDB64C" opacity="1.000000" stroke="none" 
	d="
M144.946075,148.638489 
	C146.902252,148.257217 149.089645,148.148849 151.742859,148.062943 
	C150.149384,150.782501 147.734467,150.452316 144.946075,148.638489 
z"/>
<path fill="#9E792E" opacity="1.000000" stroke="none" 
	d="
M123.738632,183.520508 
	C124.707062,183.179657 125.659142,183.193771 126.904724,183.156830 
	C126.778130,184.572739 126.358025,186.039703 125.937920,187.506668 
	C125.606575,187.531387 125.275238,187.556091 124.943893,187.580811 
	C124.536690,186.345703 124.129486,185.110580 123.738632,183.520508 
z"/>
<path fill="#DDB64C" opacity="1.000000" stroke="none" 
	d="
M158.264893,139.803055 
	C158.726288,138.690430 159.467361,137.401550 160.533173,136.048523 
	C160.086792,137.198547 159.315689,138.412674 158.264893,139.803055 
z"/>
<path fill="#9E792E" opacity="1.000000" stroke="none" 
	d="
M127.399979,182.829620 
	C127.266457,181.203842 127.422142,179.307388 127.907150,177.163589 
	C128.054047,178.797134 127.871613,180.678040 127.399979,182.829620 
z"/>
<path fill="#9E792E" opacity="1.000000" stroke="none" 
	d="
M123.609177,124.195732 
	C123.834824,125.392998 123.857910,126.911942 123.675362,128.745926 
	C123.448685,127.546448 123.427658,126.031929 123.609177,124.195732 
z"/>
<path fill="#DDB64C" opacity="1.000000" stroke="none" 
	d="
M150.546005,144.850632 
	C149.744553,144.965225 148.559402,145.119095 147.244080,144.946136 
	C148.130051,144.709518 149.146179,144.799713 150.546005,144.850632 
z"/>
<path fill="#9E792E" opacity="1.000000" stroke="none" 
	d="
M127.022614,150.356567 
	C127.162048,150.062225 127.338013,150.040527 127.779694,150.007431 
	C128.268478,150.482285 128.491531,150.968521 128.624756,151.726318 
	C128.042984,151.541641 127.551064,151.085419 127.022614,150.356567 
z"/>
<path fill="#DDB64C" opacity="1.000000" stroke="none" 
	d="
M156.690094,134.146423 
	C156.754410,134.813278 156.573547,135.705841 156.082626,136.760345 
	C155.996689,136.072250 156.220795,135.222183 156.690094,134.146423 
z"/>
<path fill="#DDB64C" opacity="1.000000" stroke="none" 
	d="
M157.594177,130.918243 
	C157.734619,131.623077 157.615143,132.574402 157.204590,133.746628 
	C157.053772,133.033264 157.194016,132.098999 157.594177,130.918243 
z"/>
<path fill="#DDB64C" opacity="1.000000" stroke="none" 
	d="
M143.023010,147.350861 
	C143.460114,147.311676 144.040787,147.530258 144.669220,148.076996 
	C144.200195,148.139633 143.683380,147.874146 143.023010,147.350861 
z"/>
<path fill="#DDB64C" opacity="1.000000" stroke="none" 
	d="
M157.290436,141.018463 
	C157.210083,140.834869 157.371643,140.539551 157.756622,140.116898 
	C157.830811,140.295288 157.681595,140.601013 157.290436,141.018463 
z"/>
<path fill="#DDB64C" opacity="1.000000" stroke="none" 
	d="
M141.824738,146.381744 
	C142.036240,146.285873 142.368774,146.449402 142.822601,146.872131 
	C142.611176,146.967941 142.278473,146.804550 141.824738,146.381744 
z"/>
<path fill="#EABE44" opacity="1.000000" stroke="none" 
	d="
M29.146179,156.944290 
	C27.554445,144.140289 29.909880,132.094498 37.021023,121.332619 
	C41.666824,114.301743 54.119938,110.478142 64.002983,117.442558 
	C65.052452,118.182106 66.258537,119.329559 66.484146,120.467728 
	C66.870346,122.416107 66.538544,124.506821 66.508247,126.537750 
	C64.891258,125.786133 62.764721,125.454651 61.741375,124.213539 
	C55.853867,117.073219 43.447479,119.302750 39.816486,127.624207 
	C35.544403,137.414917 33.849144,147.604889 32.658058,158.350021 
	C31.518888,158.094635 30.748104,157.563202 29.770845,156.997467 
	C29.564371,156.963150 29.146179,156.944290 29.146179,156.944290 
z"/>
<path fill="#C1912E" opacity="1.000000" stroke="none" 
	d="
M29.977322,157.031769 
	C30.748104,157.563202 31.518888,158.094635 32.539898,158.758453 
	C33.138638,165.499542 35.378468,171.337769 39.906353,176.224609 
	C43.818489,180.446884 48.501663,181.252106 53.832088,178.662766 
	C58.286362,176.499008 60.162613,172.938095 59.505672,167.213074 
	C55.841312,167.396561 52.138092,167.581985 48.434872,167.767410 
	C48.226578,167.394516 48.018280,167.021622 47.809982,166.648743 
	C48.828053,165.748978 49.720417,164.344009 50.889957,164.052994 
	C53.446949,163.416763 56.137917,163.193863 58.786358,163.075775 
	C64.636551,162.814972 66.151657,164.465256 64.697266,170.100327 
	C63.925140,173.091919 62.237343,175.847168 60.400570,178.978790 
	C59.600563,179.565948 59.362873,179.883438 59.125183,180.200912 
	C59.125183,180.200912 59.112000,180.103134 58.888268,180.187866 
	C58.484985,180.578598 58.305435,180.884598 58.125881,181.190582 
	C58.125877,181.190582 58.088200,181.095047 57.873455,181.174988 
	C57.459030,181.543610 57.259350,181.832291 57.059669,182.120987 
	C57.059669,182.120987 57.025875,182.023727 56.750965,182.042786 
	C55.992531,182.399124 55.509010,182.736404 55.025490,183.073685 
	C55.025486,183.073685 55.009418,183.003571 54.685253,183.008255 
	C53.600346,183.406937 52.839603,183.800934 52.078857,184.194916 
	C52.078857,184.194916 52.023083,184.105331 51.628403,184.072754 
	C49.450108,184.070587 47.666489,184.101028 45.882874,184.131470 
	C45.882874,184.131454 45.987518,184.086044 45.778183,183.825790 
	C44.659019,183.408783 43.749191,183.252045 42.839363,183.095291 
	C40.302059,180.999344 37.764755,178.903397 35.064713,176.191742 
	C34.498692,175.113419 34.095409,174.650787 33.692127,174.188156 
	C33.692127,174.188156 33.786434,174.130051 33.757042,173.915253 
	C33.459320,173.478088 33.190987,173.255722 32.922661,173.033356 
	C32.922661,173.033356 32.997196,173.014145 32.978638,172.742859 
	C32.665417,171.983978 32.370750,171.496384 32.076080,171.008774 
	C32.076080,171.008774 31.904697,170.633087 31.920454,170.109131 
	C31.643501,169.060349 31.350794,168.535522 31.058086,168.010681 
	C31.058088,168.010681 30.883724,167.659622 30.922375,167.104187 
	C30.663342,165.703140 30.365654,164.857529 30.067966,164.011932 
	C29.971226,163.674484 29.874485,163.337036 29.854773,162.276352 
	C29.946974,160.046005 29.962149,158.538879 29.977322,157.031769 
z"/>
<path fill="#AD8939" opacity="1.000000" stroke="none" 
	d="
M46.151558,184.393280 
	C47.666489,184.101028 49.450108,184.070587 51.679142,184.087219 
	C50.223122,184.307892 48.321682,184.481491 46.151558,184.393280 
z"/>
<path fill="#B08B34" opacity="1.000000" stroke="none" 
	d="
M29.770847,156.997467 
	C29.962149,158.538879 29.946974,160.046005 29.883453,162.013733 
	C29.544367,160.896698 29.253626,159.319046 29.054531,157.342850 
	C29.146179,156.944290 29.564371,156.963150 29.770847,156.997467 
z"/>
<path fill="#B08B34" opacity="1.000000" stroke="none" 
	d="
M30.019985,164.361679 
	C30.365654,164.857529 30.663342,165.703140 30.921726,166.908203 
	C30.578951,166.415573 30.275478,165.563507 30.019985,164.361679 
z"/>
<path fill="#AD8939" opacity="1.000000" stroke="none" 
	d="
M52.415760,184.197281 
	C52.839603,183.800934 53.600346,183.406937 54.713005,183.031128 
	C54.294167,183.432755 53.523415,183.816193 52.415760,184.197281 
z"/>
<path fill="#AD8939" opacity="1.000000" stroke="none" 
	d="
M43.064178,183.351608 
	C43.749191,183.252045 44.659019,183.408783 45.747128,183.873627 
	C45.046600,183.990448 44.167801,183.799194 43.064178,183.351608 
z"/>
<path fill="#AD8939" opacity="1.000000" stroke="none" 
	d="
M55.327511,183.049652 
	C55.509010,182.736404 55.992531,182.399124 56.790703,182.075516 
	C56.613415,182.401337 56.121475,182.713470 55.327511,183.049652 
z"/>
<path fill="#B08B34" opacity="1.000000" stroke="none" 
	d="
M33.730789,174.497849 
	C34.095409,174.650787 34.498692,175.113419 34.886658,175.915558 
	C34.504051,175.772552 34.136753,175.290054 33.730789,174.497849 
z"/>
<path fill="#B08B34" opacity="1.000000" stroke="none" 
	d="
M32.056801,171.307251 
	C32.370750,171.496384 32.665417,171.983978 32.953175,172.771729 
	C32.643353,172.583145 32.340435,172.094437 32.056801,171.307251 
z"/>
<path fill="#B08B34" opacity="1.000000" stroke="none" 
	d="
M31.037712,168.323486 
	C31.350794,168.535522 31.643501,169.060349 31.913170,169.902802 
	C31.599197,169.692383 31.308268,169.164337 31.037712,168.323486 
z"/>
<path fill="#AD8939" opacity="1.000000" stroke="none" 
	d="
M57.326607,182.062592 
	C57.259350,181.832291 57.459030,181.543610 57.922707,181.189514 
	C57.988983,181.417480 57.791264,181.710846 57.326607,182.062592 
z"/>
<path fill="#AD8939" opacity="1.000000" stroke="none" 
	d="
M58.382198,181.106628 
	C58.305435,180.884598 58.484985,180.578598 58.933655,180.207184 
	C59.014690,180.435394 58.826599,180.729019 58.382198,181.106628 
z"/>
<path fill="#AD8939" opacity="1.000000" stroke="none" 
	d="
M59.408283,180.118347 
	C59.362873,179.883438 59.600563,179.565948 60.146168,179.201721 
	C60.199852,179.448578 59.945618,179.742188 59.408283,180.118347 
z"/>
<path fill="#B08B34" opacity="1.000000" stroke="none" 
	d="
M32.962593,173.299652 
	C33.190987,173.255722 33.459320,173.478088 33.753426,173.970520 
	C33.520309,174.015717 33.261421,173.790833 32.962593,173.299652 
z"/>
<path fill="#F9F9F9" opacity="1.000000" stroke="none" 
	d="
M88.971977,172.967667 
	C84.197472,173.983826 81.314041,171.605896 79.748665,167.462753 
	C77.768898,162.222794 78.002625,157.045227 81.205299,152.257828 
	C83.313416,149.106567 86.729805,147.700867 89.841850,149.227219 
	C92.072556,150.321289 94.230812,153.330811 94.727402,155.823273 
	C95.747986,160.945709 94.798645,166.077881 90.862991,170.748703 
	C90.293228,171.393967 90.106964,171.650787 89.713074,172.018280 
	C89.254776,172.381531 89.091652,172.697632 88.959061,173.020096 
	C88.989586,173.026459 88.971977,172.967667 88.971977,172.967667 
z"/>
<path fill="#EFEFEF" opacity="1.000000" stroke="none" 
	d="
M90.008255,171.971130 
	C90.106964,171.650787 90.293228,171.393967 90.786255,171.099350 
	C92.936928,171.441132 94.868393,171.884232 96.985008,172.670639 
	C95.822334,175.461563 94.474518,177.909180 92.925095,180.642914 
	C92.116318,180.847061 91.509140,180.765121 90.599983,180.615753 
	C90.112076,178.189697 89.926155,175.831085 89.356110,173.220062 
	C88.971977,172.967667 88.989586,173.026459 89.304535,173.188507 
	C89.749062,172.890732 89.878654,172.430923 90.008255,171.971130 
z"/>
<path fill="#A27D3F" opacity="1.000000" stroke="none" 
	d="
M169.833710,178.839951 
	C169.804489,180.530457 169.454224,181.929703 169.103973,183.328949 
	C168.721420,183.305588 168.338867,183.282227 167.956314,183.258865 
	C167.956314,173.807388 167.956314,164.355911 168.021393,154.437958 
	C168.380768,154.136154 168.613281,154.363922 168.874603,154.885712 
	C169.147644,162.927338 169.330154,170.738022 169.833710,178.839951 
z"/>
<path fill="#ECBF3F" opacity="1.000000" stroke="none" 
	d="
M166.539276,119.461975 
	C166.570648,119.515289 166.507889,119.408653 166.539276,119.461975 
z"/>
<path fill="#272727" opacity="1.000000" stroke="none" 
	d="
M89.713074,172.018280 
	C89.878654,172.430923 89.749062,172.890732 89.274002,173.182129 
	C89.091652,172.697632 89.254776,172.381531 89.713074,172.018280 
z"/>
</svg>